<mxfile host="app.diagrams.net" agent="Mozilla/5.0 (Windows NT 10.0; Win64; x64; rv:133.0) Gecko/20100101 Firefox/133.0" version="25.0.3" pages="2">
  <diagram id="R2lEEEUBdFMjLlhIrx00" name="Page-1">
    <mxGraphModel dx="1116" dy="1639" grid="1" gridSize="10" guides="1" tooltips="1" connect="1" arrows="1" fold="1" page="1" pageScale="1" pageWidth="850" pageHeight="1100" math="0" shadow="0" extFonts="Permanent Marker^https://fonts.googleapis.com/css?family=Permanent+Marker">
      <root>
        <mxCell id="0" />
        <mxCell id="1" parent="0" />
        <mxCell id="04urakdWcX9fBKobl6bI-1" value="Partidos" style="rounded=0;whiteSpace=wrap;html=1;" parent="1" vertex="1">
          <mxGeometry x="394" y="-628" width="120" height="40" as="geometry" />
        </mxCell>
        <mxCell id="04urakdWcX9fBKobl6bI-2" value="Equipos" style="rounded=0;whiteSpace=wrap;html=1;" parent="1" vertex="1">
          <mxGeometry x="71" y="-544.25" width="120" height="35" as="geometry" />
        </mxCell>
        <mxCell id="04urakdWcX9fBKobl6bI-6" value="Nombre" style="ellipse;whiteSpace=wrap;html=1;" parent="1" vertex="1">
          <mxGeometry x="145.87" y="-489.25" width="65" height="35" as="geometry" />
        </mxCell>
        <mxCell id="04urakdWcX9fBKobl6bI-9" value="Competiciones" style="rounded=0;whiteSpace=wrap;html=1;" parent="1" vertex="1">
          <mxGeometry x="552.5" y="-266" width="120" height="40" as="geometry" />
        </mxCell>
        <mxCell id="04urakdWcX9fBKobl6bI-11" value="Temporadas" style="rounded=0;whiteSpace=wrap;html=1;" parent="1" vertex="1">
          <mxGeometry x="751.5" y="-186" width="87.5" height="40" as="geometry" />
        </mxCell>
        <mxCell id="04urakdWcX9fBKobl6bI-15" value="Árbitros" style="rounded=0;whiteSpace=wrap;html=1;" parent="1" vertex="1">
          <mxGeometry x="649" y="-1003" width="120" height="30" as="geometry" />
        </mxCell>
        <mxCell id="04urakdWcX9fBKobl6bI-16" value="Equipo_arbitral" style="rounded=0;whiteSpace=wrap;html=1;" parent="1" vertex="1">
          <mxGeometry x="694" y="-598" width="120" height="30" as="geometry" />
        </mxCell>
        <mxCell id="04urakdWcX9fBKobl6bI-17" value="Jugadores" style="rounded=0;whiteSpace=wrap;html=1;" parent="1" vertex="1">
          <mxGeometry x="71" y="-756.25" width="120" height="40" as="geometry" />
        </mxCell>
        <mxCell id="04urakdWcX9fBKobl6bI-18" value="Nombre_completo" style="ellipse;whiteSpace=wrap;html=1;" parent="1" vertex="1">
          <mxGeometry x="42.370000000000005" y="-869.25" width="105" height="35" as="geometry" />
        </mxCell>
        <mxCell id="04urakdWcX9fBKobl6bI-19" value="Nombre_deportivo" style="ellipse;whiteSpace=wrap;html=1;" parent="1" vertex="1">
          <mxGeometry x="167.5" y="-923.75" width="115" height="25" as="geometry" />
        </mxCell>
        <mxCell id="04urakdWcX9fBKobl6bI-21" value="Peso" style="ellipse;whiteSpace=wrap;html=1;" parent="1" vertex="1">
          <mxGeometry x="6.5" y="-734.25" width="50" height="30" as="geometry" />
        </mxCell>
        <mxCell id="04urakdWcX9fBKobl6bI-22" value="Estatura" style="ellipse;whiteSpace=wrap;html=1;" parent="1" vertex="1">
          <mxGeometry x="3.37" y="-786.25" width="75" height="30" as="geometry" />
        </mxCell>
        <mxCell id="04urakdWcX9fBKobl6bI-23" value="Fecha_final_contrato" style="ellipse;whiteSpace=wrap;html=1;" parent="1" vertex="1">
          <mxGeometry x="93.87" y="-898.75" width="120" height="29.5" as="geometry" />
        </mxCell>
        <mxCell id="04urakdWcX9fBKobl6bI-24" value="Importe" style="ellipse;whiteSpace=wrap;html=1;" parent="1" vertex="1">
          <mxGeometry x="6.5" y="-689.25" width="55" height="30" as="geometry" />
        </mxCell>
        <mxCell id="04urakdWcX9fBKobl6bI-25" value="Lances" style="rounded=0;whiteSpace=wrap;html=1;" parent="1" vertex="1">
          <mxGeometry x="394" y="-948" width="120" height="37.5" as="geometry" />
        </mxCell>
        <mxCell id="04urakdWcX9fBKobl6bI-26" value="Tipo" style="ellipse;whiteSpace=wrap;html=1;" parent="1" vertex="1">
          <mxGeometry x="364" y="-1008" width="55" height="30" as="geometry" />
        </mxCell>
        <mxCell id="04urakdWcX9fBKobl6bI-27" value="Tiempo" style="ellipse;whiteSpace=wrap;html=1;" parent="1" vertex="1">
          <mxGeometry x="388" y="-895.5" width="55" height="30" as="geometry" />
        </mxCell>
        <mxCell id="04urakdWcX9fBKobl6bI-29" value="Comentario" style="ellipse;whiteSpace=wrap;html=1;" parent="1" vertex="1">
          <mxGeometry x="474" y="-895.5" width="75" height="30" as="geometry" />
        </mxCell>
        <mxCell id="inNDsGXoUcWYAkGI4Rf3-2" value="resultado_local" style="ellipse;whiteSpace=wrap;html=1;" parent="1" vertex="1">
          <mxGeometry x="529" y="-606" width="99.5" height="38" as="geometry" />
        </mxCell>
        <mxCell id="inNDsGXoUcWYAkGI4Rf3-6" value="resultado_visitante" style="ellipse;whiteSpace=wrap;html=1;" parent="1" vertex="1">
          <mxGeometry x="323" y="-713" width="120" height="40" as="geometry" />
        </mxCell>
        <mxCell id="inNDsGXoUcWYAkGI4Rf3-11" value="Partido_amistoso" style="rounded=0;whiteSpace=wrap;html=1;" parent="1" vertex="1">
          <mxGeometry x="313" y="-468" width="120" height="40" as="geometry" />
        </mxCell>
        <mxCell id="YFh-IGeQEtQM-p5CWIq_-4" value="ISA" style="strokeWidth=2;html=1;shape=mxgraph.flowchart.merge_or_storage;whiteSpace=wrap;" parent="1" vertex="1">
          <mxGeometry x="565" y="-171" width="95" height="60" as="geometry" />
        </mxCell>
        <mxCell id="YFh-IGeQEtQM-p5CWIq_-5" value="género" style="ellipse;whiteSpace=wrap;html=1;" parent="1" vertex="1">
          <mxGeometry x="507.5" y="-296" width="72.5" height="20" as="geometry" />
        </mxCell>
        <mxCell id="YFh-IGeQEtQM-p5CWIq_-7" value="de naciones" style="rounded=0;whiteSpace=wrap;html=1;" parent="1" vertex="1">
          <mxGeometry x="637.5" y="-66" width="120" height="30" as="geometry" />
        </mxCell>
        <mxCell id="YFh-IGeQEtQM-p5CWIq_-8" value="de clubes" style="rounded=0;whiteSpace=wrap;html=1;" parent="1" vertex="1">
          <mxGeometry x="477.5" y="-81" width="120" height="30" as="geometry" />
        </mxCell>
        <mxCell id="YFh-IGeQEtQM-p5CWIq_-10" value="nacional/&lt;div&gt;internacional&lt;/div&gt;" style="ellipse;whiteSpace=wrap;html=1;" parent="1" vertex="1">
          <mxGeometry x="435.5" y="-146" width="85" height="40" as="geometry" />
        </mxCell>
        <mxCell id="YFh-IGeQEtQM-p5CWIq_-11" value="es nueva&amp;nbsp;&lt;div&gt;versión de&lt;/div&gt;" style="strokeWidth=2;html=1;shape=mxgraph.flowchart.decision;whiteSpace=wrap;" parent="1" vertex="1">
          <mxGeometry x="330" y="-106" width="100" height="80" as="geometry" />
        </mxCell>
        <mxCell id="YFh-IGeQEtQM-p5CWIq_-15" value="temporada&lt;div&gt;(deducida de fecha)&lt;/div&gt;" style="ellipse;whiteSpace=wrap;html=1;" parent="1" vertex="1">
          <mxGeometry x="274" y="-528" width="100" height="40" as="geometry" />
        </mxCell>
        <mxCell id="YFh-IGeQEtQM-p5CWIq_-20" value="forman/fichan" style="shape=rhombus;perimeter=rhombusPerimeter;whiteSpace=wrap;html=1;align=center;" parent="1" vertex="1">
          <mxGeometry x="70.87" y="-654.25" width="120" height="60" as="geometry" />
        </mxCell>
        <mxCell id="YFh-IGeQEtQM-p5CWIq_-23" value="asocia" style="shape=rhombus;perimeter=rhombusPerimeter;whiteSpace=wrap;html=1;align=center;" parent="1" vertex="1">
          <mxGeometry x="574" y="-818" width="105" height="45" as="geometry" />
        </mxCell>
        <mxCell id="Gta5DQi-riPikVPDDbvj-3" value="realizan" style="shape=rhombus;perimeter=rhombusPerimeter;whiteSpace=wrap;html=1;align=center;" parent="1" vertex="1">
          <mxGeometry x="264.37" y="-898.75" width="75" height="45" as="geometry" />
        </mxCell>
        <mxCell id="Gta5DQi-riPikVPDDbvj-6" value="asistentes" style="ellipse;shape=doubleEllipse;margin=3;whiteSpace=wrap;html=1;align=center;" parent="1" vertex="1">
          <mxGeometry x="704" y="-665" width="100" height="40" as="geometry" />
        </mxCell>
        <mxCell id="Gta5DQi-riPikVPDDbvj-8" value="roles_Arb" style="whiteSpace=wrap;html=1;align=center;" parent="1" vertex="1">
          <mxGeometry x="724" y="-818" width="87.5" height="30" as="geometry" />
        </mxCell>
        <mxCell id="Gta5DQi-riPikVPDDbvj-9" value="Rol" style="ellipse;whiteSpace=wrap;html=1;align=center;fontStyle=4;" parent="1" vertex="1">
          <mxGeometry x="735.25" y="-768" width="65" height="30" as="geometry" />
        </mxCell>
        <mxCell id="Gta5DQi-riPikVPDDbvj-10" value="inscriben" style="shape=rhombus;perimeter=rhombusPerimeter;whiteSpace=wrap;html=1;align=center;" parent="1" vertex="1">
          <mxGeometry x="302.5" y="-388.94" width="120" height="60" as="geometry" />
        </mxCell>
        <mxCell id="Gta5DQi-riPikVPDDbvj-18" value="desempeñan" style="shape=rhombus;perimeter=rhombusPerimeter;whiteSpace=wrap;html=1;align=center;" parent="1" vertex="1">
          <mxGeometry x="714" y="-893" width="107.5" height="40" as="geometry" />
        </mxCell>
        <mxCell id="Gta5DQi-riPikVPDDbvj-20" value="año" style="ellipse;whiteSpace=wrap;html=1;align=center;fontStyle=4;" parent="1" vertex="1">
          <mxGeometry x="762.75" y="-128.5" width="63.75" height="25" as="geometry" />
        </mxCell>
        <mxCell id="Gta5DQi-riPikVPDDbvj-22" value="pertenece" style="shape=rhombus;perimeter=rhombusPerimeter;whiteSpace=wrap;html=1;align=center;" parent="1" vertex="1">
          <mxGeometry x="711.5" y="-473" width="85" height="50" as="geometry" />
        </mxCell>
        <mxCell id="Gta5DQi-riPikVPDDbvj-24" value="nombre_competición" style="ellipse;whiteSpace=wrap;html=1;align=center;fontStyle=4;" parent="1" vertex="1">
          <mxGeometry x="459" y="-213.5" width="130" height="30" as="geometry" />
        </mxCell>
        <mxCell id="Gta5DQi-riPikVPDDbvj-27" value="nacionalidad" style="ellipse;whiteSpace=wrap;html=1;align=center;" parent="1" vertex="1">
          <mxGeometry x="724.63" y="-953" width="100" height="30" as="geometry" />
        </mxCell>
        <mxCell id="Gta5DQi-riPikVPDDbvj-28" value="id" style="ellipse;whiteSpace=wrap;html=1;align=center;fontStyle=4;" parent="1" vertex="1">
          <mxGeometry x="786.5" y="-998" width="52.5" height="30" as="geometry" />
        </mxCell>
        <mxCell id="Gta5DQi-riPikVPDDbvj-29" value="nombre" style="ellipse;whiteSpace=wrap;html=1;align=center;" parent="1" vertex="1">
          <mxGeometry x="741.5" y="-1043" width="80" height="20" as="geometry" />
        </mxCell>
        <mxCell id="Gta5DQi-riPikVPDDbvj-33" value="fecha_alta" style="ellipse;whiteSpace=wrap;html=1;align=center;" parent="1" vertex="1">
          <mxGeometry x="282.5" y="-312.07" width="70" height="30" as="geometry" />
        </mxCell>
        <mxCell id="Gta5DQi-riPikVPDDbvj-35" value="fecha_baja" style="ellipse;whiteSpace=wrap;html=1;align=center;" parent="1" vertex="1">
          <mxGeometry x="374.5" y="-312.07" width="76" height="30" as="geometry" />
        </mxCell>
        <mxCell id="Gta5DQi-riPikVPDDbvj-36" value="registran" style="shape=rhombus;perimeter=rhombusPerimeter;whiteSpace=wrap;html=1;align=center;" parent="1" vertex="1">
          <mxGeometry x="394" y="-773" width="120" height="60" as="geometry" />
        </mxCell>
        <mxCell id="Gta5DQi-riPikVPDDbvj-40" value="realizan" style="shape=rhombus;perimeter=rhombusPerimeter;whiteSpace=wrap;html=1;align=center;" parent="1" vertex="1">
          <mxGeometry x="529" y="-1011.5" width="75" height="47" as="geometry" />
        </mxCell>
        <mxCell id="Gta5DQi-riPikVPDDbvj-48" value="ISA" style="strokeWidth=2;html=1;shape=mxgraph.flowchart.merge_or_storage;whiteSpace=wrap;" parent="1" vertex="1">
          <mxGeometry x="406.5" y="-558" width="95" height="60" as="geometry" />
        </mxCell>
        <mxCell id="cS88r38_KW8MVmtZ6D21-2" value="ISA" style="strokeWidth=2;html=1;shape=mxgraph.flowchart.merge_or_storage;whiteSpace=wrap;" parent="1" vertex="1">
          <mxGeometry x="83.37" y="-431.75" width="95" height="65.5" as="geometry" />
        </mxCell>
        <mxCell id="cS88r38_KW8MVmtZ6D21-3" value="Selecciones" style="rounded=0;whiteSpace=wrap;html=1;" parent="1" vertex="1">
          <mxGeometry x="31.37" y="-341.75" width="100" height="20" as="geometry" />
        </mxCell>
        <mxCell id="cS88r38_KW8MVmtZ6D21-5" value="Clubes" style="rounded=0;whiteSpace=wrap;html=1;" parent="1" vertex="1">
          <mxGeometry x="138.37" y="-341.75" width="100" height="20" as="geometry" />
        </mxCell>
        <mxCell id="cS88r38_KW8MVmtZ6D21-15" value="Jornadas_Fases" style="shape=ext;margin=3;double=1;whiteSpace=wrap;html=1;align=center;" parent="1" vertex="1">
          <mxGeometry x="696.5" y="-358" width="115" height="40" as="geometry" />
        </mxCell>
        <mxCell id="cS88r38_KW8MVmtZ6D21-17" value="tiene" style="shape=rhombus;perimeter=rhombusPerimeter;whiteSpace=wrap;html=1;align=center;" parent="1" vertex="1">
          <mxGeometry x="577.5" y="-363" width="70" height="50" as="geometry" />
        </mxCell>
        <mxCell id="cS88r38_KW8MVmtZ6D21-23" value="pertenece" style="shape=rhombus;perimeter=rhombusPerimeter;whiteSpace=wrap;html=1;align=center;" parent="1" vertex="1">
          <mxGeometry x="739.88" y="-271" width="70" height="50" as="geometry" />
        </mxCell>
        <mxCell id="LJqsEhRlSRcl8UIKpy76-1" value="" style="endArrow=none;html=1;rounded=0;fontSize=12;startSize=8;endSize=8;curved=1;entryX=0.5;entryY=1;entryDx=0;entryDy=0;exitX=0.5;exitY=0;exitDx=0;exitDy=0;" parent="1" source="Gta5DQi-riPikVPDDbvj-8" target="Gta5DQi-riPikVPDDbvj-18" edge="1">
          <mxGeometry width="50" height="50" relative="1" as="geometry">
            <mxPoint x="632.75" y="-807.5" as="sourcePoint" />
            <mxPoint x="682.75" y="-857.5" as="targetPoint" />
          </mxGeometry>
        </mxCell>
        <mxCell id="TzkVPNW5jithaWXrd3FV-46" value="&lt;font style=&quot;font-size: 14px;&quot;&gt;(1,1)&lt;/font&gt;" style="edgeLabel;html=1;align=center;verticalAlign=middle;resizable=0;points=[];" parent="LJqsEhRlSRcl8UIKpy76-1" vertex="1" connectable="0">
          <mxGeometry x="-0.3194" y="1" relative="1" as="geometry">
            <mxPoint as="offset" />
          </mxGeometry>
        </mxCell>
        <mxCell id="LJqsEhRlSRcl8UIKpy76-2" value="" style="endArrow=none;html=1;rounded=0;fontSize=12;startSize=8;endSize=8;curved=1;entryX=0;entryY=0.5;entryDx=0;entryDy=0;exitX=0.531;exitY=1.022;exitDx=0;exitDy=0;exitPerimeter=0;" parent="1" source="04urakdWcX9fBKobl6bI-15" target="Gta5DQi-riPikVPDDbvj-18" edge="1">
          <mxGeometry width="50" height="50" relative="1" as="geometry">
            <mxPoint x="676.5" y="-753" as="sourcePoint" />
            <mxPoint x="726.5" y="-803" as="targetPoint" />
          </mxGeometry>
        </mxCell>
        <mxCell id="TzkVPNW5jithaWXrd3FV-47" value="&lt;font style=&quot;font-size: 14px;&quot;&gt;(1,1)&lt;/font&gt;" style="edgeLabel;html=1;align=center;verticalAlign=middle;resizable=0;points=[];" parent="LJqsEhRlSRcl8UIKpy76-2" vertex="1" connectable="0">
          <mxGeometry x="-0.2333" relative="1" as="geometry">
            <mxPoint as="offset" />
          </mxGeometry>
        </mxCell>
        <mxCell id="LJqsEhRlSRcl8UIKpy76-3" value="" style="endArrow=none;html=1;rounded=0;fontSize=12;startSize=8;endSize=8;entryX=0.25;entryY=1;entryDx=0;entryDy=0;exitX=0.5;exitY=0;exitDx=0;exitDy=0;edgeStyle=orthogonalEdgeStyle;" parent="1" source="YFh-IGeQEtQM-p5CWIq_-23" target="04urakdWcX9fBKobl6bI-15" edge="1">
          <mxGeometry width="50" height="50" relative="1" as="geometry">
            <mxPoint x="669" y="-758" as="sourcePoint" />
            <mxPoint x="719" y="-808" as="targetPoint" />
          </mxGeometry>
        </mxCell>
        <mxCell id="SiwQUYb9ngDk87hLv0Yr-3" value="&lt;font style=&quot;font-size: 14px;&quot;&gt;N&lt;/font&gt;" style="edgeLabel;html=1;align=center;verticalAlign=middle;resizable=0;points=[];" parent="LJqsEhRlSRcl8UIKpy76-3" vertex="1" connectable="0">
          <mxGeometry x="0.6583" relative="1" as="geometry">
            <mxPoint x="2" y="-17" as="offset" />
          </mxGeometry>
        </mxCell>
        <mxCell id="LJqsEhRlSRcl8UIKpy76-4" value="" style="endArrow=none;html=1;rounded=0;fontSize=12;startSize=8;endSize=8;entryX=1;entryY=0.5;entryDx=0;entryDy=0;exitX=0;exitY=0.5;exitDx=0;exitDy=0;edgeStyle=orthogonalEdgeStyle;" parent="1" source="04urakdWcX9fBKobl6bI-16" target="YFh-IGeQEtQM-p5CWIq_-23" edge="1">
          <mxGeometry width="50" height="50" relative="1" as="geometry">
            <mxPoint x="669" y="-618" as="sourcePoint" />
            <mxPoint x="719" y="-668" as="targetPoint" />
            <Array as="points">
              <mxPoint x="684" y="-583" />
              <mxPoint x="684" y="-795" />
            </Array>
          </mxGeometry>
        </mxCell>
        <mxCell id="SiwQUYb9ngDk87hLv0Yr-30" value="&lt;font style=&quot;font-size: 14px;&quot;&gt;1&lt;/font&gt;" style="edgeLabel;html=1;align=center;verticalAlign=middle;resizable=0;points=[];" parent="LJqsEhRlSRcl8UIKpy76-4" vertex="1" connectable="0">
          <mxGeometry x="-0.2125" y="-2" relative="1" as="geometry">
            <mxPoint as="offset" />
          </mxGeometry>
        </mxCell>
        <mxCell id="LJqsEhRlSRcl8UIKpy76-5" value="" style="endArrow=none;html=1;rounded=0;fontSize=12;startSize=8;endSize=8;entryX=0.5;entryY=1;entryDx=0;entryDy=0;exitX=1;exitY=0.5;exitDx=0;exitDy=0;edgeStyle=orthogonalEdgeStyle;" parent="1" source="04urakdWcX9fBKobl6bI-25" target="Gta5DQi-riPikVPDDbvj-40" edge="1">
          <mxGeometry width="50" height="50" relative="1" as="geometry">
            <mxPoint x="669" y="-608" as="sourcePoint" />
            <mxPoint x="719" y="-658" as="targetPoint" />
          </mxGeometry>
        </mxCell>
        <mxCell id="TzkVPNW5jithaWXrd3FV-45" value="&lt;font style=&quot;font-size: 14px;&quot;&gt;(0,n)&lt;/font&gt;" style="edgeLabel;html=1;align=center;verticalAlign=middle;resizable=0;points=[];" parent="LJqsEhRlSRcl8UIKpy76-5" vertex="1" connectable="0">
          <mxGeometry x="-0.4989" relative="1" as="geometry">
            <mxPoint as="offset" />
          </mxGeometry>
        </mxCell>
        <mxCell id="LJqsEhRlSRcl8UIKpy76-6" value="" style="endArrow=none;html=1;rounded=0;fontSize=12;startSize=8;endSize=8;curved=1;exitX=1;exitY=0.5;exitDx=0;exitDy=0;entryX=0;entryY=0.5;entryDx=0;entryDy=0;" parent="1" source="Gta5DQi-riPikVPDDbvj-40" target="04urakdWcX9fBKobl6bI-15" edge="1">
          <mxGeometry width="50" height="50" relative="1" as="geometry">
            <mxPoint x="669" y="-608" as="sourcePoint" />
            <mxPoint x="639" y="-994" as="targetPoint" />
          </mxGeometry>
        </mxCell>
        <mxCell id="TzkVPNW5jithaWXrd3FV-44" value="(1,1)" style="edgeLabel;html=1;align=center;verticalAlign=middle;resizable=0;points=[];" parent="LJqsEhRlSRcl8UIKpy76-6" vertex="1" connectable="0">
          <mxGeometry x="-0.15" y="2" relative="1" as="geometry">
            <mxPoint as="offset" />
          </mxGeometry>
        </mxCell>
        <mxCell id="LJqsEhRlSRcl8UIKpy76-8" value="" style="endArrow=none;html=1;rounded=0;fontSize=12;startSize=8;endSize=8;entryX=0;entryY=0.5;entryDx=0;entryDy=0;exitX=0.5;exitY=0;exitDx=0;exitDy=0;edgeStyle=orthogonalEdgeStyle;" parent="1" source="Gta5DQi-riPikVPDDbvj-3" target="04urakdWcX9fBKobl6bI-25" edge="1">
          <mxGeometry width="50" height="50" relative="1" as="geometry">
            <mxPoint x="539" y="-828" as="sourcePoint" />
            <mxPoint x="589" y="-878" as="targetPoint" />
          </mxGeometry>
        </mxCell>
        <mxCell id="TzkVPNW5jithaWXrd3FV-42" value="&lt;font style=&quot;font-size: 14px;&quot;&gt;(0,n)&lt;/font&gt;" style="edgeLabel;html=1;align=center;verticalAlign=middle;resizable=0;points=[];" parent="LJqsEhRlSRcl8UIKpy76-8" vertex="1" connectable="0">
          <mxGeometry x="0.5213" relative="1" as="geometry">
            <mxPoint as="offset" />
          </mxGeometry>
        </mxCell>
        <mxCell id="LJqsEhRlSRcl8UIKpy76-9" value="" style="endArrow=none;html=1;rounded=0;fontSize=12;startSize=8;endSize=8;curved=1;entryX=0.5;entryY=1;entryDx=0;entryDy=0;exitX=0.5;exitY=0;exitDx=0;exitDy=0;" parent="1" source="Gta5DQi-riPikVPDDbvj-36" target="04urakdWcX9fBKobl6bI-25" edge="1">
          <mxGeometry width="50" height="50" relative="1" as="geometry">
            <mxPoint x="539" y="-738" as="sourcePoint" />
            <mxPoint x="589" y="-788" as="targetPoint" />
          </mxGeometry>
        </mxCell>
        <mxCell id="SiwQUYb9ngDk87hLv0Yr-42" value="&lt;font style=&quot;font-size: 14px;&quot;&gt;N&lt;/font&gt;" style="edgeLabel;html=1;align=center;verticalAlign=middle;resizable=0;points=[];" parent="LJqsEhRlSRcl8UIKpy76-9" vertex="1" connectable="0">
          <mxGeometry x="0.0618" y="-1" relative="1" as="geometry">
            <mxPoint as="offset" />
          </mxGeometry>
        </mxCell>
        <mxCell id="LJqsEhRlSRcl8UIKpy76-10" value="" style="endArrow=none;html=1;rounded=0;fontSize=12;startSize=8;endSize=8;curved=1;entryX=0.5;entryY=1;entryDx=0;entryDy=0;exitX=0.979;exitY=0;exitDx=0;exitDy=0;exitPerimeter=0;" parent="1" source="04urakdWcX9fBKobl6bI-17" target="Gta5DQi-riPikVPDDbvj-3" edge="1">
          <mxGeometry width="50" height="50" relative="1" as="geometry">
            <mxPoint x="539" y="-874.25" as="sourcePoint" />
            <mxPoint x="589" y="-924.25" as="targetPoint" />
          </mxGeometry>
        </mxCell>
        <mxCell id="TzkVPNW5jithaWXrd3FV-43" value="&lt;font style=&quot;font-size: 14px;&quot;&gt;(1,1)&lt;/font&gt;" style="edgeLabel;html=1;align=center;verticalAlign=middle;resizable=0;points=[];" parent="LJqsEhRlSRcl8UIKpy76-10" vertex="1" connectable="0">
          <mxGeometry x="-0.2889" y="-1" relative="1" as="geometry">
            <mxPoint x="-1" y="-4" as="offset" />
          </mxGeometry>
        </mxCell>
        <mxCell id="LJqsEhRlSRcl8UIKpy76-13" value="" style="endArrow=none;html=1;rounded=0;fontSize=12;startSize=8;endSize=8;entryX=0.5;entryY=1;entryDx=0;entryDy=0;exitX=0.5;exitY=0;exitDx=0;exitDy=0;edgeStyle=orthogonalEdgeStyle;" parent="1" source="04urakdWcX9fBKobl6bI-2" target="YFh-IGeQEtQM-p5CWIq_-20" edge="1">
          <mxGeometry width="50" height="50" relative="1" as="geometry">
            <mxPoint x="539" y="-684.25" as="sourcePoint" />
            <mxPoint x="589" y="-734.25" as="targetPoint" />
          </mxGeometry>
        </mxCell>
        <mxCell id="SiwQUYb9ngDk87hLv0Yr-32" value="&lt;font style=&quot;font-size: 14px;&quot;&gt;(1,1)&lt;/font&gt;" style="edgeLabel;html=1;align=center;verticalAlign=middle;resizable=0;points=[];" parent="LJqsEhRlSRcl8UIKpy76-13" vertex="1" connectable="0">
          <mxGeometry x="-0.2236" y="-3" relative="1" as="geometry">
            <mxPoint x="-4" y="-6" as="offset" />
          </mxGeometry>
        </mxCell>
        <mxCell id="LJqsEhRlSRcl8UIKpy76-14" value="" style="endArrow=none;html=1;rounded=0;fontSize=12;startSize=8;endSize=8;entryX=0.5;entryY=1;entryDx=0;entryDy=0;edgeStyle=elbowEdgeStyle;elbow=vertical;exitX=0.5;exitY=0;exitDx=0;exitDy=0;exitPerimeter=0;" parent="1" source="cS88r38_KW8MVmtZ6D21-2" target="04urakdWcX9fBKobl6bI-2" edge="1">
          <mxGeometry width="50" height="50" relative="1" as="geometry">
            <mxPoint x="539" y="-474.25" as="sourcePoint" />
            <mxPoint x="589" y="-524.25" as="targetPoint" />
            <Array as="points">
              <mxPoint x="139" y="-484.25" />
            </Array>
          </mxGeometry>
        </mxCell>
        <mxCell id="LJqsEhRlSRcl8UIKpy76-15" value="" style="endArrow=none;html=1;rounded=0;fontSize=12;startSize=8;endSize=8;entryX=1;entryY=0.5;entryDx=0;entryDy=0;exitX=0.125;exitY=0.333;exitDx=0;exitDy=0;exitPerimeter=0;edgeStyle=orthogonalEdgeStyle;" parent="1" source="Gta5DQi-riPikVPDDbvj-10" target="XiUle8GG6skzjTlj86Vm-17" edge="1">
          <mxGeometry width="50" height="50" relative="1" as="geometry">
            <mxPoint x="539" y="-338" as="sourcePoint" />
            <mxPoint x="589" y="-388" as="targetPoint" />
          </mxGeometry>
        </mxCell>
        <mxCell id="SiwQUYb9ngDk87hLv0Yr-49" value="&lt;font style=&quot;font-size: 14px;&quot;&gt;(0,n)&lt;/font&gt;" style="edgeLabel;html=1;align=center;verticalAlign=middle;resizable=0;points=[];" parent="LJqsEhRlSRcl8UIKpy76-15" vertex="1" connectable="0">
          <mxGeometry x="-0.1208" y="1" relative="1" as="geometry">
            <mxPoint as="offset" />
          </mxGeometry>
        </mxCell>
        <mxCell id="LJqsEhRlSRcl8UIKpy76-16" value="" style="endArrow=none;html=1;rounded=0;fontSize=12;startSize=8;endSize=8;entryX=0.184;entryY=0.5;entryDx=0;entryDy=0;entryPerimeter=0;exitX=0.45;exitY=0;exitDx=0;exitDy=0;exitPerimeter=0;edgeStyle=orthogonalEdgeStyle;" parent="1" source="cS88r38_KW8MVmtZ6D21-3" target="cS88r38_KW8MVmtZ6D21-2" edge="1">
          <mxGeometry width="50" height="50" relative="1" as="geometry">
            <mxPoint x="553.37" y="-431.75" as="sourcePoint" />
            <mxPoint x="603.37" y="-481.75" as="targetPoint" />
          </mxGeometry>
        </mxCell>
        <mxCell id="LJqsEhRlSRcl8UIKpy76-17" value="" style="endArrow=none;html=1;rounded=0;fontSize=12;startSize=8;endSize=8;exitX=0.5;exitY=0;exitDx=0;exitDy=0;entryX=0.868;entryY=0.412;entryDx=0;entryDy=0;entryPerimeter=0;edgeStyle=orthogonalEdgeStyle;" parent="1" source="cS88r38_KW8MVmtZ6D21-5" target="cS88r38_KW8MVmtZ6D21-2" edge="1">
          <mxGeometry width="50" height="50" relative="1" as="geometry">
            <mxPoint x="553.37" y="-431.75" as="sourcePoint" />
            <mxPoint x="173.37" y="-401.75" as="targetPoint" />
          </mxGeometry>
        </mxCell>
        <mxCell id="LJqsEhRlSRcl8UIKpy76-18" value="" style="endArrow=none;html=1;rounded=0;fontSize=12;startSize=8;endSize=8;entryX=1;entryY=0.5;entryDx=0;entryDy=0;exitX=0;exitY=0.5;exitDx=0;exitDy=0;edgeStyle=orthogonalEdgeStyle;" parent="1" source="04urakdWcX9fBKobl6bI-9" target="Gta5DQi-riPikVPDDbvj-10" edge="1">
          <mxGeometry width="50" height="50" relative="1" as="geometry">
            <mxPoint x="539" y="-338" as="sourcePoint" />
            <mxPoint x="589" y="-388" as="targetPoint" />
          </mxGeometry>
        </mxCell>
        <mxCell id="SiwQUYb9ngDk87hLv0Yr-50" value="&lt;font style=&quot;font-size: 14px;&quot;&gt;(0,n)&lt;/font&gt;" style="edgeLabel;html=1;align=center;verticalAlign=middle;resizable=0;points=[];" parent="LJqsEhRlSRcl8UIKpy76-18" vertex="1" connectable="0">
          <mxGeometry x="-0.5299" y="2" relative="1" as="geometry">
            <mxPoint y="-2" as="offset" />
          </mxGeometry>
        </mxCell>
        <mxCell id="LJqsEhRlSRcl8UIKpy76-19" value="" style="endArrow=none;html=1;rounded=0;fontSize=12;startSize=8;endSize=8;curved=1;entryX=0;entryY=0.5;entryDx=0;entryDy=0;exitX=1;exitY=0.5;exitDx=0;exitDy=0;exitPerimeter=0;" parent="1" source="YFh-IGeQEtQM-p5CWIq_-11" target="YFh-IGeQEtQM-p5CWIq_-8" edge="1">
          <mxGeometry width="50" height="50" relative="1" as="geometry">
            <mxPoint x="387.5" y="-76" as="sourcePoint" />
            <mxPoint x="667.5" y="-276" as="targetPoint" />
          </mxGeometry>
        </mxCell>
        <mxCell id="SiwQUYb9ngDk87hLv0Yr-55" value="&lt;font style=&quot;font-size: 14px;&quot;&gt;(0,1)&lt;/font&gt;" style="edgeLabel;html=1;align=center;verticalAlign=middle;resizable=0;points=[];" parent="LJqsEhRlSRcl8UIKpy76-19" vertex="1" connectable="0">
          <mxGeometry x="-0.163" relative="1" as="geometry">
            <mxPoint as="offset" />
          </mxGeometry>
        </mxCell>
        <mxCell id="LJqsEhRlSRcl8UIKpy76-20" value="" style="endArrow=none;html=1;rounded=0;fontSize=12;startSize=8;endSize=8;exitX=0.5;exitY=1;exitDx=0;exitDy=0;exitPerimeter=0;entryX=0.5;entryY=1;entryDx=0;entryDy=0;edgeStyle=orthogonalEdgeStyle;" parent="1" source="YFh-IGeQEtQM-p5CWIq_-11" target="YFh-IGeQEtQM-p5CWIq_-8" edge="1">
          <mxGeometry width="50" height="50" relative="1" as="geometry">
            <mxPoint x="617.5" y="-226" as="sourcePoint" />
            <mxPoint x="667.5" y="-276" as="targetPoint" />
          </mxGeometry>
        </mxCell>
        <mxCell id="SiwQUYb9ngDk87hLv0Yr-56" value="&lt;font style=&quot;font-size: 14px;&quot;&gt;(0,1)&lt;/font&gt;" style="edgeLabel;html=1;align=center;verticalAlign=middle;resizable=0;points=[];" parent="LJqsEhRlSRcl8UIKpy76-20" vertex="1" connectable="0">
          <mxGeometry x="-0.6992" relative="1" as="geometry">
            <mxPoint as="offset" />
          </mxGeometry>
        </mxCell>
        <mxCell id="LJqsEhRlSRcl8UIKpy76-22" value="" style="endArrow=none;html=1;rounded=0;fontSize=12;startSize=8;endSize=8;exitX=0.458;exitY=0.018;exitDx=0;exitDy=0;exitPerimeter=0;entryX=0.096;entryY=0.356;entryDx=0;entryDy=0;entryPerimeter=0;edgeStyle=orthogonalEdgeStyle;" parent="1" source="YFh-IGeQEtQM-p5CWIq_-8" target="YFh-IGeQEtQM-p5CWIq_-4" edge="1">
          <mxGeometry width="50" height="50" relative="1" as="geometry">
            <mxPoint x="617.5" y="-241" as="sourcePoint" />
            <mxPoint x="667.5" y="-291" as="targetPoint" />
          </mxGeometry>
        </mxCell>
        <mxCell id="LJqsEhRlSRcl8UIKpy76-23" value="" style="endArrow=none;html=1;rounded=0;fontSize=12;startSize=8;endSize=8;exitX=0.5;exitY=0;exitDx=0;exitDy=0;entryX=0.868;entryY=0.426;entryDx=0;entryDy=0;entryPerimeter=0;edgeStyle=orthogonalEdgeStyle;" parent="1" source="YFh-IGeQEtQM-p5CWIq_-7" target="YFh-IGeQEtQM-p5CWIq_-4" edge="1">
          <mxGeometry width="50" height="50" relative="1" as="geometry">
            <mxPoint x="617.5" y="-241" as="sourcePoint" />
            <mxPoint x="667.5" y="-291" as="targetPoint" />
          </mxGeometry>
        </mxCell>
        <mxCell id="LJqsEhRlSRcl8UIKpy76-24" value="" style="endArrow=none;html=1;rounded=0;fontSize=12;startSize=8;endSize=8;curved=1;exitX=0.5;exitY=0;exitDx=0;exitDy=0;exitPerimeter=0;entryX=0.5;entryY=1;entryDx=0;entryDy=0;" parent="1" source="YFh-IGeQEtQM-p5CWIq_-4" target="04urakdWcX9fBKobl6bI-9" edge="1">
          <mxGeometry width="50" height="50" relative="1" as="geometry">
            <mxPoint x="617.5" y="-306" as="sourcePoint" />
            <mxPoint x="667.5" y="-356" as="targetPoint" />
          </mxGeometry>
        </mxCell>
        <mxCell id="LJqsEhRlSRcl8UIKpy76-27" value="" style="endArrow=none;html=1;rounded=0;fontSize=12;startSize=8;endSize=8;entryX=0.5;entryY=0;entryDx=0;entryDy=0;exitX=0.5;exitY=1;exitDx=0;exitDy=0;edgeStyle=orthogonalEdgeStyle;" parent="1" source="cS88r38_KW8MVmtZ6D21-23" target="04urakdWcX9fBKobl6bI-11" edge="1">
          <mxGeometry width="50" height="50" relative="1" as="geometry">
            <mxPoint x="758.8800000000001" y="-213.5" as="sourcePoint" />
            <mxPoint x="806.13" y="-216" as="targetPoint" />
          </mxGeometry>
        </mxCell>
        <mxCell id="SiwQUYb9ngDk87hLv0Yr-53" value="&lt;font style=&quot;font-size: 14px;&quot;&gt;(1,n)&lt;/font&gt;" style="edgeLabel;html=1;align=center;verticalAlign=middle;resizable=0;points=[];" parent="LJqsEhRlSRcl8UIKpy76-27" vertex="1" connectable="0">
          <mxGeometry x="0.0922" relative="1" as="geometry">
            <mxPoint as="offset" />
          </mxGeometry>
        </mxCell>
        <mxCell id="LJqsEhRlSRcl8UIKpy76-28" value="" style="endArrow=none;html=1;rounded=0;fontSize=12;startSize=8;endSize=8;exitX=0.5;exitY=0;exitDx=0;exitDy=0;edgeStyle=orthogonalEdgeStyle;entryX=0.5;entryY=1;entryDx=0;entryDy=0;" parent="1" source="04urakdWcX9fBKobl6bI-9" target="cS88r38_KW8MVmtZ6D21-17" edge="1">
          <mxGeometry width="50" height="50" relative="1" as="geometry">
            <mxPoint x="657.5" y="-306" as="sourcePoint" />
            <mxPoint x="613" y="-311" as="targetPoint" />
            <Array as="points">
              <mxPoint x="613" y="-290" />
              <mxPoint x="613" y="-290" />
            </Array>
          </mxGeometry>
        </mxCell>
        <mxCell id="SiwQUYb9ngDk87hLv0Yr-60" value="&lt;font style=&quot;font-size: 14px;&quot;&gt;(1,1)&lt;/font&gt;" style="edgeLabel;html=1;align=center;verticalAlign=middle;resizable=0;points=[];" parent="LJqsEhRlSRcl8UIKpy76-28" vertex="1" connectable="0">
          <mxGeometry x="-0.184" y="1" relative="1" as="geometry">
            <mxPoint as="offset" />
          </mxGeometry>
        </mxCell>
        <mxCell id="LJqsEhRlSRcl8UIKpy76-30" value="" style="endArrow=none;html=1;rounded=0;fontSize=12;startSize=8;endSize=8;entryX=0;entryY=0.5;entryDx=0;entryDy=0;exitX=1;exitY=0.5;exitDx=0;exitDy=0;edgeStyle=orthogonalEdgeStyle;" parent="1" source="cS88r38_KW8MVmtZ6D21-17" target="cS88r38_KW8MVmtZ6D21-15" edge="1">
          <mxGeometry width="50" height="50" relative="1" as="geometry">
            <mxPoint x="657.5" y="-306" as="sourcePoint" />
            <mxPoint x="842.5" y="-336" as="targetPoint" />
          </mxGeometry>
        </mxCell>
        <mxCell id="SiwQUYb9ngDk87hLv0Yr-59" value="&lt;font style=&quot;font-size: 14px;&quot;&gt;(0,n)&lt;/font&gt;" style="edgeLabel;html=1;align=center;verticalAlign=middle;resizable=0;points=[];" parent="LJqsEhRlSRcl8UIKpy76-30" vertex="1" connectable="0">
          <mxGeometry x="0.04" relative="1" as="geometry">
            <mxPoint as="offset" />
          </mxGeometry>
        </mxCell>
        <mxCell id="LJqsEhRlSRcl8UIKpy76-31" value="" style="endArrow=none;html=1;rounded=0;fontSize=12;startSize=8;endSize=8;curved=1;entryX=1;entryY=0.5;entryDx=0;entryDy=0;exitX=0.087;exitY=0.515;exitDx=0;exitDy=0;exitPerimeter=0;" parent="1" source="Gta5DQi-riPikVPDDbvj-22" target="XiUle8GG6skzjTlj86Vm-5" edge="1">
          <mxGeometry width="50" height="50" relative="1" as="geometry">
            <mxPoint x="579" y="-358" as="sourcePoint" />
            <mxPoint x="534" y="-428" as="targetPoint" />
          </mxGeometry>
        </mxCell>
        <mxCell id="SiwQUYb9ngDk87hLv0Yr-52" value="&lt;font style=&quot;font-size: 14px;&quot;&gt;(0,n)&lt;/font&gt;" style="edgeLabel;html=1;align=center;verticalAlign=middle;resizable=0;points=[];" parent="LJqsEhRlSRcl8UIKpy76-31" vertex="1" connectable="0">
          <mxGeometry x="-0.0258" relative="1" as="geometry">
            <mxPoint as="offset" />
          </mxGeometry>
        </mxCell>
        <mxCell id="LJqsEhRlSRcl8UIKpy76-32" value="" style="endArrow=none;html=1;rounded=0;fontSize=12;startSize=8;endSize=8;entryX=0.912;entryY=0.342;entryDx=0;entryDy=0;entryPerimeter=0;exitX=0.5;exitY=0;exitDx=0;exitDy=0;edgeStyle=orthogonalEdgeStyle;" parent="1" source="XiUle8GG6skzjTlj86Vm-5" target="Gta5DQi-riPikVPDDbvj-48" edge="1">
          <mxGeometry width="50" height="50" relative="1" as="geometry">
            <mxPoint x="534" y="-468" as="sourcePoint" />
            <mxPoint x="629" y="-508" as="targetPoint" />
          </mxGeometry>
        </mxCell>
        <mxCell id="LJqsEhRlSRcl8UIKpy76-33" value="" style="endArrow=none;html=1;rounded=0;fontSize=12;startSize=8;endSize=8;exitX=0.5;exitY=0;exitDx=0;exitDy=0;entryX=0.123;entryY=0.384;entryDx=0;entryDy=0;entryPerimeter=0;edgeStyle=orthogonalEdgeStyle;" parent="1" source="inNDsGXoUcWYAkGI4Rf3-11" target="Gta5DQi-riPikVPDDbvj-48" edge="1">
          <mxGeometry width="50" height="50" relative="1" as="geometry">
            <mxPoint x="579" y="-458" as="sourcePoint" />
            <mxPoint x="629" y="-508" as="targetPoint" />
          </mxGeometry>
        </mxCell>
        <mxCell id="LJqsEhRlSRcl8UIKpy76-34" value="" style="endArrow=none;html=1;rounded=0;fontSize=12;startSize=8;endSize=8;curved=1;exitX=0.5;exitY=0;exitDx=0;exitDy=0;exitPerimeter=0;entryX=0.5;entryY=1;entryDx=0;entryDy=0;" parent="1" source="Gta5DQi-riPikVPDDbvj-48" target="04urakdWcX9fBKobl6bI-1" edge="1">
          <mxGeometry width="50" height="50" relative="1" as="geometry">
            <mxPoint x="579" y="-578" as="sourcePoint" />
            <mxPoint x="629" y="-628" as="targetPoint" />
          </mxGeometry>
        </mxCell>
        <mxCell id="LJqsEhRlSRcl8UIKpy76-35" value="" style="endArrow=none;html=1;rounded=0;fontSize=12;startSize=8;endSize=8;curved=1;exitX=0.5;exitY=0;exitDx=0;exitDy=0;entryX=0.5;entryY=1;entryDx=0;entryDy=0;" parent="1" source="04urakdWcX9fBKobl6bI-1" target="Gta5DQi-riPikVPDDbvj-36" edge="1">
          <mxGeometry width="50" height="50" relative="1" as="geometry">
            <mxPoint x="579" y="-698" as="sourcePoint" />
            <mxPoint x="629" y="-748" as="targetPoint" />
          </mxGeometry>
        </mxCell>
        <mxCell id="SiwQUYb9ngDk87hLv0Yr-40" value="&lt;font style=&quot;font-size: 14px;&quot;&gt;1&lt;/font&gt;" style="edgeLabel;html=1;align=center;verticalAlign=middle;resizable=0;points=[];" parent="LJqsEhRlSRcl8UIKpy76-35" vertex="1" connectable="0">
          <mxGeometry x="-0.2941" y="-1" relative="1" as="geometry">
            <mxPoint as="offset" />
          </mxGeometry>
        </mxCell>
        <mxCell id="LJqsEhRlSRcl8UIKpy76-36" value="" style="endArrow=none;html=1;rounded=0;fontSize=12;startSize=8;endSize=8;exitX=1;exitY=0.5;exitDx=0;exitDy=0;edgeStyle=orthogonalEdgeStyle;entryX=0.5;entryY=1;entryDx=0;entryDy=0;" parent="1" target="YFh-IGeQEtQM-p5CWIq_-23" edge="1">
          <mxGeometry width="50" height="50" relative="1" as="geometry">
            <mxPoint x="514" y="-615" as="sourcePoint" />
            <mxPoint x="627" y="-768" as="targetPoint" />
          </mxGeometry>
        </mxCell>
        <mxCell id="SiwQUYb9ngDk87hLv0Yr-29" value="&lt;font style=&quot;font-size: 14px;&quot;&gt;N&lt;/font&gt;" style="edgeLabel;html=1;align=center;verticalAlign=middle;resizable=0;points=[];" parent="LJqsEhRlSRcl8UIKpy76-36" vertex="1" connectable="0">
          <mxGeometry x="-0.6344" relative="1" as="geometry">
            <mxPoint as="offset" />
          </mxGeometry>
        </mxCell>
        <mxCell id="TzkVPNW5jithaWXrd3FV-1" value="" style="endArrow=none;html=1;rounded=0;entryX=0.5;entryY=0;entryDx=0;entryDy=0;exitX=0.5;exitY=1;exitDx=0;exitDy=0;" parent="1" source="Gta5DQi-riPikVPDDbvj-8" target="Gta5DQi-riPikVPDDbvj-9" edge="1">
          <mxGeometry width="50" height="50" relative="1" as="geometry">
            <mxPoint x="477.75" y="-858" as="sourcePoint" />
            <mxPoint x="527.75" y="-908" as="targetPoint" />
          </mxGeometry>
        </mxCell>
        <mxCell id="TzkVPNW5jithaWXrd3FV-2" value="" style="endArrow=none;html=1;rounded=0;entryX=0.5;entryY=1;entryDx=0;entryDy=0;exitX=0.75;exitY=0;exitDx=0;exitDy=0;" parent="1" source="04urakdWcX9fBKobl6bI-15" target="Gta5DQi-riPikVPDDbvj-29" edge="1">
          <mxGeometry width="50" height="50" relative="1" as="geometry">
            <mxPoint x="786.5" y="-973" as="sourcePoint" />
            <mxPoint x="836.5" y="-1023" as="targetPoint" />
          </mxGeometry>
        </mxCell>
        <mxCell id="TzkVPNW5jithaWXrd3FV-3" value="" style="endArrow=none;html=1;rounded=0;entryX=0.75;entryY=1;entryDx=0;entryDy=0;exitX=0.5;exitY=0;exitDx=0;exitDy=0;" parent="1" source="Gta5DQi-riPikVPDDbvj-27" target="04urakdWcX9fBKobl6bI-15" edge="1">
          <mxGeometry width="50" height="50" relative="1" as="geometry">
            <mxPoint x="734" y="-947.5" as="sourcePoint" />
            <mxPoint x="759" y="-964.5" as="targetPoint" />
          </mxGeometry>
        </mxCell>
        <mxCell id="TzkVPNW5jithaWXrd3FV-4" value="" style="endArrow=none;html=1;rounded=0;entryX=0;entryY=0.5;entryDx=0;entryDy=0;exitX=1;exitY=0.5;exitDx=0;exitDy=0;" parent="1" source="04urakdWcX9fBKobl6bI-15" target="Gta5DQi-riPikVPDDbvj-28" edge="1">
          <mxGeometry width="50" height="50" relative="1" as="geometry">
            <mxPoint x="759.5" y="-983" as="sourcePoint" />
            <mxPoint x="784.5" y="-1000" as="targetPoint" />
          </mxGeometry>
        </mxCell>
        <mxCell id="TzkVPNW5jithaWXrd3FV-5" value="" style="endArrow=none;html=1;rounded=0;entryX=0.5;entryY=1;entryDx=0;entryDy=0;exitX=0.75;exitY=0;exitDx=0;exitDy=0;" parent="1" source="04urakdWcX9fBKobl6bI-25" target="SiwQUYb9ngDk87hLv0Yr-26" edge="1">
          <mxGeometry width="50" height="50" relative="1" as="geometry">
            <mxPoint x="539" y="-898" as="sourcePoint" />
            <mxPoint x="479.74999999999955" y="-986.5000000000001" as="targetPoint" />
          </mxGeometry>
        </mxCell>
        <mxCell id="TzkVPNW5jithaWXrd3FV-6" value="" style="endArrow=none;html=1;rounded=0;entryX=0.5;entryY=1;entryDx=0;entryDy=0;exitX=0.25;exitY=0;exitDx=0;exitDy=0;" parent="1" source="04urakdWcX9fBKobl6bI-25" target="04urakdWcX9fBKobl6bI-26" edge="1">
          <mxGeometry width="50" height="50" relative="1" as="geometry">
            <mxPoint x="369" y="-918" as="sourcePoint" />
            <mxPoint x="419" y="-968" as="targetPoint" />
          </mxGeometry>
        </mxCell>
        <mxCell id="TzkVPNW5jithaWXrd3FV-7" value="" style="endArrow=none;html=1;rounded=0;entryX=0.25;entryY=1;entryDx=0;entryDy=0;exitX=0.5;exitY=0;exitDx=0;exitDy=0;" parent="1" source="04urakdWcX9fBKobl6bI-27" target="04urakdWcX9fBKobl6bI-25" edge="1">
          <mxGeometry width="50" height="50" relative="1" as="geometry">
            <mxPoint x="389" y="-848" as="sourcePoint" />
            <mxPoint x="439" y="-898" as="targetPoint" />
          </mxGeometry>
        </mxCell>
        <mxCell id="TzkVPNW5jithaWXrd3FV-8" value="" style="endArrow=none;html=1;rounded=0;entryX=0.75;entryY=1;entryDx=0;entryDy=0;exitX=0.5;exitY=0;exitDx=0;exitDy=0;" parent="1" source="04urakdWcX9fBKobl6bI-29" target="04urakdWcX9fBKobl6bI-25" edge="1">
          <mxGeometry width="50" height="50" relative="1" as="geometry">
            <mxPoint x="509" y="-868" as="sourcePoint" />
            <mxPoint x="559" y="-918" as="targetPoint" />
          </mxGeometry>
        </mxCell>
        <mxCell id="TzkVPNW5jithaWXrd3FV-9" value="" style="endArrow=none;html=1;rounded=0;entryX=0.5;entryY=1;entryDx=0;entryDy=0;exitX=0.5;exitY=0;exitDx=0;exitDy=0;" parent="1" source="04urakdWcX9fBKobl6bI-16" target="Gta5DQi-riPikVPDDbvj-6" edge="1">
          <mxGeometry width="50" height="50" relative="1" as="geometry">
            <mxPoint x="659" y="-538" as="sourcePoint" />
            <mxPoint x="709" y="-588" as="targetPoint" />
          </mxGeometry>
        </mxCell>
        <mxCell id="TzkVPNW5jithaWXrd3FV-10" value="" style="endArrow=none;html=1;rounded=0;entryX=0.5;entryY=1;entryDx=0;entryDy=0;exitX=0.5;exitY=0;exitDx=0;exitDy=0;" parent="1" source="SiwQUYb9ngDk87hLv0Yr-25" target="04urakdWcX9fBKobl6bI-16" edge="1">
          <mxGeometry width="50" height="50" relative="1" as="geometry">
            <mxPoint x="754" y="-543" as="sourcePoint" />
            <mxPoint x="719" y="-578" as="targetPoint" />
          </mxGeometry>
        </mxCell>
        <mxCell id="TzkVPNW5jithaWXrd3FV-11" value="" style="endArrow=none;html=1;rounded=0;entryX=0;entryY=0.5;entryDx=0;entryDy=0;exitX=1;exitY=0.642;exitDx=0;exitDy=0;exitPerimeter=0;" parent="1" source="04urakdWcX9fBKobl6bI-1" target="inNDsGXoUcWYAkGI4Rf3-2" edge="1">
          <mxGeometry width="50" height="50" relative="1" as="geometry">
            <mxPoint x="419" y="-588" as="sourcePoint" />
            <mxPoint x="469" y="-638" as="targetPoint" />
          </mxGeometry>
        </mxCell>
        <mxCell id="TzkVPNW5jithaWXrd3FV-12" value="" style="endArrow=none;html=1;rounded=0;entryX=0.75;entryY=0;entryDx=0;entryDy=0;exitX=0;exitY=1;exitDx=0;exitDy=0;" parent="1" source="SiwQUYb9ngDk87hLv0Yr-24" target="04urakdWcX9fBKobl6bI-1" edge="1">
          <mxGeometry width="50" height="50" relative="1" as="geometry">
            <mxPoint x="413" y="-658" as="sourcePoint" />
            <mxPoint x="541" y="-624" as="targetPoint" />
          </mxGeometry>
        </mxCell>
        <mxCell id="TzkVPNW5jithaWXrd3FV-13" value="" style="endArrow=none;html=1;rounded=0;entryX=1;entryY=1;entryDx=0;entryDy=0;exitX=0.25;exitY=0;exitDx=0;exitDy=0;" parent="1" source="04urakdWcX9fBKobl6bI-1" target="inNDsGXoUcWYAkGI4Rf3-6" edge="1">
          <mxGeometry width="50" height="50" relative="1" as="geometry">
            <mxPoint x="339" y="-568" as="sourcePoint" />
            <mxPoint x="389" y="-618" as="targetPoint" />
          </mxGeometry>
        </mxCell>
        <mxCell id="TzkVPNW5jithaWXrd3FV-14" value="" style="endArrow=none;html=1;rounded=0;entryX=0.611;entryY=0.008;entryDx=0;entryDy=0;exitX=0;exitY=1;exitDx=0;exitDy=0;entryPerimeter=0;" parent="1" source="SiwQUYb9ngDk87hLv0Yr-21" target="04urakdWcX9fBKobl6bI-1" edge="1">
          <mxGeometry width="50" height="50" relative="1" as="geometry">
            <mxPoint x="366.9211705354046" y="-592.6025012347036" as="sourcePoint" />
            <mxPoint x="429" y="-608" as="targetPoint" />
          </mxGeometry>
        </mxCell>
        <mxCell id="TzkVPNW5jithaWXrd3FV-15" value="" style="endArrow=none;html=1;rounded=0;entryX=0.75;entryY=1;entryDx=0;entryDy=0;exitX=0;exitY=0.5;exitDx=0;exitDy=0;" parent="1" source="SiwQUYb9ngDk87hLv0Yr-23" target="04urakdWcX9fBKobl6bI-1" edge="1">
          <mxGeometry width="50" height="50" relative="1" as="geometry">
            <mxPoint x="536.5466540681418" y="-592.1884270203539" as="sourcePoint" />
            <mxPoint x="539" y="-598" as="targetPoint" />
          </mxGeometry>
        </mxCell>
        <mxCell id="TzkVPNW5jithaWXrd3FV-17" value="" style="endArrow=none;html=1;rounded=0;entryX=0.5;entryY=1;entryDx=0;entryDy=0;exitX=0;exitY=0.75;exitDx=0;exitDy=0;" parent="1" source="04urakdWcX9fBKobl6bI-17" target="04urakdWcX9fBKobl6bI-21" edge="1">
          <mxGeometry width="50" height="50" relative="1" as="geometry">
            <mxPoint x="80" y="-726.25" as="sourcePoint" />
            <mxPoint x="239" y="-984.25" as="targetPoint" />
          </mxGeometry>
        </mxCell>
        <mxCell id="TzkVPNW5jithaWXrd3FV-18" value="" style="endArrow=none;html=1;rounded=0;entryX=1;entryY=1;entryDx=0;entryDy=0;exitX=0;exitY=0.5;exitDx=0;exitDy=0;" parent="1" source="04urakdWcX9fBKobl6bI-17" target="04urakdWcX9fBKobl6bI-22" edge="1">
          <mxGeometry width="50" height="50" relative="1" as="geometry">
            <mxPoint x="179" y="-844.25" as="sourcePoint" />
            <mxPoint x="229" y="-894.25" as="targetPoint" />
          </mxGeometry>
        </mxCell>
        <mxCell id="TzkVPNW5jithaWXrd3FV-19" value="" style="endArrow=none;html=1;rounded=0;entryX=1;entryY=1;entryDx=0;entryDy=0;exitX=0.81;exitY=0.036;exitDx=0;exitDy=0;exitPerimeter=0;" parent="1" source="04urakdWcX9fBKobl6bI-17" target="04urakdWcX9fBKobl6bI-19" edge="1">
          <mxGeometry width="50" height="50" relative="1" as="geometry">
            <mxPoint x="149" y="-874.25" as="sourcePoint" />
            <mxPoint x="199" y="-924.25" as="targetPoint" />
          </mxGeometry>
        </mxCell>
        <mxCell id="TzkVPNW5jithaWXrd3FV-20" value="" style="endArrow=none;html=1;rounded=0;entryX=0.5;entryY=1;entryDx=0;entryDy=0;exitX=0.689;exitY=0.036;exitDx=0;exitDy=0;exitPerimeter=0;" parent="1" source="04urakdWcX9fBKobl6bI-17" target="04urakdWcX9fBKobl6bI-23" edge="1">
          <mxGeometry width="50" height="50" relative="1" as="geometry">
            <mxPoint x="109" y="-894.25" as="sourcePoint" />
            <mxPoint x="159" y="-944.25" as="targetPoint" />
          </mxGeometry>
        </mxCell>
        <mxCell id="TzkVPNW5jithaWXrd3FV-21" value="" style="endArrow=none;html=1;rounded=0;entryX=1;entryY=0.5;entryDx=0;entryDy=0;exitX=0.25;exitY=1;exitDx=0;exitDy=0;" parent="1" source="04urakdWcX9fBKobl6bI-17" target="04urakdWcX9fBKobl6bI-24" edge="1">
          <mxGeometry width="50" height="50" relative="1" as="geometry">
            <mxPoint x="139" y="-874.25" as="sourcePoint" />
            <mxPoint x="189" y="-924.25" as="targetPoint" />
          </mxGeometry>
        </mxCell>
        <mxCell id="TzkVPNW5jithaWXrd3FV-24" value="" style="endArrow=none;html=1;rounded=0;entryX=0.5;entryY=0;entryDx=0;entryDy=0;exitX=0.5;exitY=1;exitDx=0;exitDy=0;" parent="1" source="04urakdWcX9fBKobl6bI-18" target="04urakdWcX9fBKobl6bI-17" edge="1">
          <mxGeometry width="50" height="50" relative="1" as="geometry">
            <mxPoint x="189" y="-834.25" as="sourcePoint" />
            <mxPoint x="239" y="-884.25" as="targetPoint" />
          </mxGeometry>
        </mxCell>
        <mxCell id="TzkVPNW5jithaWXrd3FV-25" value="" style="endArrow=none;html=1;rounded=0;entryX=0.5;entryY=0;entryDx=0;entryDy=0;exitX=0.75;exitY=1;exitDx=0;exitDy=0;" parent="1" source="04urakdWcX9fBKobl6bI-2" target="04urakdWcX9fBKobl6bI-6" edge="1">
          <mxGeometry width="50" height="50" relative="1" as="geometry">
            <mxPoint x="-4" y="-413.62" as="sourcePoint" />
            <mxPoint x="46" y="-463.62" as="targetPoint" />
          </mxGeometry>
        </mxCell>
        <mxCell id="TzkVPNW5jithaWXrd3FV-26" value="" style="endArrow=none;html=1;rounded=0;entryX=0.5;entryY=0;entryDx=0;entryDy=0;exitX=0.25;exitY=1;exitDx=0;exitDy=0;" parent="1" source="04urakdWcX9fBKobl6bI-2" target="SiwQUYb9ngDk87hLv0Yr-12" edge="1">
          <mxGeometry width="50" height="50" relative="1" as="geometry">
            <mxPoint x="166" y="-453.62" as="sourcePoint" />
            <mxPoint x="21" y="-533.62" as="targetPoint" />
          </mxGeometry>
        </mxCell>
        <mxCell id="TzkVPNW5jithaWXrd3FV-27" value="" style="endArrow=none;html=1;rounded=0;exitX=0.5;exitY=0;exitDx=0;exitDy=0;entryX=0.458;entryY=0.993;entryDx=0;entryDy=0;entryPerimeter=0;" parent="1" source="7RV-Xho5Ibt-8_JDrtLR-16" target="cS88r38_KW8MVmtZ6D21-3" edge="1">
          <mxGeometry width="50" height="50" relative="1" as="geometry">
            <mxPoint x="78.37" y="-306.75" as="sourcePoint" />
            <mxPoint x="75.37" y="-316.25" as="targetPoint" />
          </mxGeometry>
        </mxCell>
        <mxCell id="7RV-Xho5Ibt-8_JDrtLR-18" value="(0,n)" style="edgeLabel;html=1;align=center;verticalAlign=middle;resizable=0;points=[];" parent="TzkVPNW5jithaWXrd3FV-27" vertex="1" connectable="0">
          <mxGeometry x="-0.0882" y="-1" relative="1" as="geometry">
            <mxPoint as="offset" />
          </mxGeometry>
        </mxCell>
        <mxCell id="TzkVPNW5jithaWXrd3FV-28" value="" style="endArrow=none;html=1;rounded=0;entryX=0.5;entryY=1;entryDx=0;entryDy=0;exitX=0.168;exitY=0.398;exitDx=0;exitDy=0;exitPerimeter=0;" parent="1" source="7RV-Xho5Ibt-8_JDrtLR-12" target="cS88r38_KW8MVmtZ6D21-5" edge="1">
          <mxGeometry width="50" height="50" relative="1" as="geometry">
            <mxPoint x="188.37" y="-306.75" as="sourcePoint" />
            <mxPoint x="163.37" y="-331.75" as="targetPoint" />
          </mxGeometry>
        </mxCell>
        <mxCell id="7RV-Xho5Ibt-8_JDrtLR-15" value="(0,n)" style="edgeLabel;html=1;align=center;verticalAlign=middle;resizable=0;points=[];" parent="TzkVPNW5jithaWXrd3FV-28" vertex="1" connectable="0">
          <mxGeometry x="0.2678" y="1" relative="1" as="geometry">
            <mxPoint as="offset" />
          </mxGeometry>
        </mxCell>
        <mxCell id="TzkVPNW5jithaWXrd3FV-29" value="" style="endArrow=none;html=1;rounded=0;entryX=0;entryY=1;entryDx=0;entryDy=0;exitX=0.5;exitY=0;exitDx=0;exitDy=0;" parent="1" edge="1">
          <mxGeometry width="50" height="50" relative="1" as="geometry">
            <mxPoint x="317.5" y="-448.31999999999994" as="sourcePoint" />
            <mxPoint x="332.5" y="-480.1899999999998" as="targetPoint" />
          </mxGeometry>
        </mxCell>
        <mxCell id="TzkVPNW5jithaWXrd3FV-30" value="" style="endArrow=none;html=1;rounded=0;entryX=1;entryY=1;entryDx=0;entryDy=0;exitX=0.5;exitY=0;exitDx=0;exitDy=0;" parent="1" source="Gta5DQi-riPikVPDDbvj-35" target="Gta5DQi-riPikVPDDbvj-10" edge="1">
          <mxGeometry width="50" height="50" relative="1" as="geometry">
            <mxPoint x="368.5" y="-262.07" as="sourcePoint" />
            <mxPoint x="418.5" y="-312.07" as="targetPoint" />
          </mxGeometry>
        </mxCell>
        <mxCell id="TzkVPNW5jithaWXrd3FV-31" value="" style="endArrow=none;html=1;rounded=0;entryX=1;entryY=1;entryDx=0;entryDy=0;exitX=0.25;exitY=0;exitDx=0;exitDy=0;" parent="1" source="04urakdWcX9fBKobl6bI-9" target="YFh-IGeQEtQM-p5CWIq_-5" edge="1">
          <mxGeometry width="50" height="50" relative="1" as="geometry">
            <mxPoint x="507.5" y="-186" as="sourcePoint" />
            <mxPoint x="557.5" y="-236" as="targetPoint" />
          </mxGeometry>
        </mxCell>
        <mxCell id="TzkVPNW5jithaWXrd3FV-33" value="" style="endArrow=none;html=1;rounded=0;entryX=1;entryY=1;entryDx=0;entryDy=0;exitX=0.25;exitY=0;exitDx=0;exitDy=0;" parent="1" source="YFh-IGeQEtQM-p5CWIq_-8" target="YFh-IGeQEtQM-p5CWIq_-10" edge="1">
          <mxGeometry width="50" height="50" relative="1" as="geometry">
            <mxPoint x="497.5" y="-56" as="sourcePoint" />
            <mxPoint x="465" y="-106" as="targetPoint" />
          </mxGeometry>
        </mxCell>
        <mxCell id="TzkVPNW5jithaWXrd3FV-34" value="" style="endArrow=none;html=1;rounded=0;entryX=0.25;entryY=1;entryDx=0;entryDy=0;exitX=1;exitY=0;exitDx=0;exitDy=0;" parent="1" source="Gta5DQi-riPikVPDDbvj-24" target="04urakdWcX9fBKobl6bI-9" edge="1">
          <mxGeometry width="50" height="50" relative="1" as="geometry">
            <mxPoint x="587.5" y="-21" as="sourcePoint" />
            <mxPoint x="637.5" y="-71" as="targetPoint" />
          </mxGeometry>
        </mxCell>
        <mxCell id="TzkVPNW5jithaWXrd3FV-37" value="" style="endArrow=none;html=1;rounded=0;entryX=0.5;entryY=0;entryDx=0;entryDy=0;exitX=0.5;exitY=1;exitDx=0;exitDy=0;" parent="1" source="04urakdWcX9fBKobl6bI-11" target="Gta5DQi-riPikVPDDbvj-20" edge="1">
          <mxGeometry width="50" height="50" relative="1" as="geometry">
            <mxPoint x="711.38" y="-296" as="sourcePoint" />
            <mxPoint x="761.38" y="-346" as="targetPoint" />
          </mxGeometry>
        </mxCell>
        <mxCell id="SiwQUYb9ngDk87hLv0Yr-7" value="juegan" style="shape=rhombus;perimeter=rhombusPerimeter;whiteSpace=wrap;html=1;align=center;" parent="1" vertex="1">
          <mxGeometry x="265.99" y="-628" width="73.38" height="48" as="geometry" />
        </mxCell>
        <mxCell id="SiwQUYb9ngDk87hLv0Yr-8" value="" style="endArrow=none;html=1;rounded=0;entryX=0;entryY=0.5;entryDx=0;entryDy=0;exitX=1;exitY=0.5;exitDx=0;exitDy=0;edgeStyle=elbowEdgeStyle;" parent="1" source="04urakdWcX9fBKobl6bI-2" target="SiwQUYb9ngDk87hLv0Yr-7" edge="1">
          <mxGeometry width="50" height="50" relative="1" as="geometry">
            <mxPoint x="139" y="-438" as="sourcePoint" />
            <mxPoint x="189" y="-488" as="targetPoint" />
          </mxGeometry>
        </mxCell>
        <mxCell id="SiwQUYb9ngDk87hLv0Yr-43" value="&lt;font style=&quot;font-size: 14px;&quot;&gt;(2,2)&lt;/font&gt;" style="edgeLabel;html=1;align=center;verticalAlign=middle;resizable=0;points=[];" parent="SiwQUYb9ngDk87hLv0Yr-8" vertex="1" connectable="0">
          <mxGeometry y="1" relative="1" as="geometry">
            <mxPoint as="offset" />
          </mxGeometry>
        </mxCell>
        <mxCell id="SiwQUYb9ngDk87hLv0Yr-9" value="" style="endArrow=none;html=1;rounded=0;exitX=1;exitY=0.5;exitDx=0;exitDy=0;entryX=0;entryY=0.5;entryDx=0;entryDy=0;edgeStyle=elbowEdgeStyle;elbow=vertical;" parent="1" source="SiwQUYb9ngDk87hLv0Yr-7" target="04urakdWcX9fBKobl6bI-1" edge="1">
          <mxGeometry width="50" height="50" relative="1" as="geometry">
            <mxPoint x="229" y="-618" as="sourcePoint" />
            <mxPoint x="279" y="-668" as="targetPoint" />
            <Array as="points">
              <mxPoint x="370" y="-604" />
            </Array>
          </mxGeometry>
        </mxCell>
        <mxCell id="SiwQUYb9ngDk87hLv0Yr-34" value="&lt;font style=&quot;font-size: 14px;&quot;&gt;(0,n)&lt;/font&gt;" style="edgeLabel;html=1;align=center;verticalAlign=middle;resizable=0;points=[];" parent="SiwQUYb9ngDk87hLv0Yr-9" vertex="1" connectable="0">
          <mxGeometry x="0.151" y="-1" relative="1" as="geometry">
            <mxPoint as="offset" />
          </mxGeometry>
        </mxCell>
        <mxCell id="SiwQUYb9ngDk87hLv0Yr-12" value="Nombre_corto" style="ellipse;whiteSpace=wrap;html=1;align=center;fontStyle=4;" parent="1" vertex="1">
          <mxGeometry x="26" y="-491.75" width="86" height="35" as="geometry" />
        </mxCell>
        <mxCell id="SiwQUYb9ngDk87hLv0Yr-17" value="Nombre_jornado_fase" style="ellipse;whiteSpace=wrap;html=1;align=center;" parent="1" vertex="1">
          <mxGeometry x="589" y="-400" width="142" height="27" as="geometry" />
        </mxCell>
        <mxCell id="SiwQUYb9ngDk87hLv0Yr-18" value="" style="endArrow=none;html=1;rounded=0;entryX=0.5;entryY=1;entryDx=0;entryDy=0;exitX=0.5;exitY=0;exitDx=0;exitDy=0;" parent="1" source="cS88r38_KW8MVmtZ6D21-15" target="SiwQUYb9ngDk87hLv0Yr-17" edge="1">
          <mxGeometry width="50" height="50" relative="1" as="geometry">
            <mxPoint x="749" y="-348" as="sourcePoint" />
            <mxPoint x="799" y="-398" as="targetPoint" />
          </mxGeometry>
        </mxCell>
        <mxCell id="SiwQUYb9ngDk87hLv0Yr-19" value="" style="endArrow=none;html=1;rounded=0;entryX=1;entryY=0.5;entryDx=0;entryDy=0;exitX=0;exitY=0.5;exitDx=0;exitDy=0;" parent="1" source="cS88r38_KW8MVmtZ6D21-23" target="04urakdWcX9fBKobl6bI-9" edge="1">
          <mxGeometry width="50" height="50" relative="1" as="geometry">
            <mxPoint x="677.5" y="-186" as="sourcePoint" />
            <mxPoint x="727.5" y="-236" as="targetPoint" />
          </mxGeometry>
        </mxCell>
        <mxCell id="SiwQUYb9ngDk87hLv0Yr-54" value="&lt;font style=&quot;font-size: 14px;&quot;&gt;(0,n)&lt;/font&gt;" style="edgeLabel;html=1;align=center;verticalAlign=middle;resizable=0;points=[];" parent="SiwQUYb9ngDk87hLv0Yr-19" vertex="1" connectable="0">
          <mxGeometry x="0.2" y="1" relative="1" as="geometry">
            <mxPoint as="offset" />
          </mxGeometry>
        </mxCell>
        <mxCell id="SiwQUYb9ngDk87hLv0Yr-20" value="id_jugador" style="ellipse;whiteSpace=wrap;html=1;align=center;fontStyle=4;" parent="1" vertex="1">
          <mxGeometry x="12.870000000000005" y="-826.25" width="81" height="32" as="geometry" />
        </mxCell>
        <mxCell id="SiwQUYb9ngDk87hLv0Yr-21" value="Equipo_visitante" style="ellipse;whiteSpace=wrap;html=1;align=center;fontStyle=4;" parent="1" vertex="1">
          <mxGeometry x="474" y="-719.25" width="106" height="30" as="geometry" />
        </mxCell>
        <mxCell id="SiwQUYb9ngDk87hLv0Yr-23" value="Equipo_local" style="ellipse;whiteSpace=wrap;html=1;align=center;fontStyle=4;" parent="1" vertex="1">
          <mxGeometry x="520.5" y="-561.25" width="100" height="30" as="geometry" />
        </mxCell>
        <mxCell id="SiwQUYb9ngDk87hLv0Yr-24" value="Fecha" style="ellipse;whiteSpace=wrap;html=1;align=center;fontStyle=4;" parent="1" vertex="1">
          <mxGeometry x="516.5" y="-683" width="100" height="40" as="geometry" />
        </mxCell>
        <mxCell id="SiwQUYb9ngDk87hLv0Yr-25" value="Principal" style="ellipse;whiteSpace=wrap;html=1;align=center;fontStyle=4;" parent="1" vertex="1">
          <mxGeometry x="711.5" y="-548" width="85" height="30" as="geometry" />
        </mxCell>
        <mxCell id="SiwQUYb9ngDk87hLv0Yr-26" value="Id_lance" style="ellipse;whiteSpace=wrap;html=1;align=center;fontStyle=4;" parent="1" vertex="1">
          <mxGeometry x="429" y="-1008" width="70" height="25" as="geometry" />
        </mxCell>
        <mxCell id="SiwQUYb9ngDk87hLv0Yr-36" value="" style="shape=requiredInterface;html=1;verticalLabelPosition=bottom;sketch=0;rotation=90;" parent="1" vertex="1">
          <mxGeometry x="439" y="-558" width="30" height="120" as="geometry" />
        </mxCell>
        <mxCell id="SiwQUYb9ngDk87hLv0Yr-37" value="" style="shape=requiredInterface;html=1;verticalLabelPosition=bottom;sketch=0;rotation=90;" parent="1" vertex="1">
          <mxGeometry x="597.5" y="-176" width="30" height="120" as="geometry" />
        </mxCell>
        <mxCell id="SiwQUYb9ngDk87hLv0Yr-38" value="" style="shape=requiredInterface;html=1;verticalLabelPosition=bottom;sketch=0;rotation=90;" parent="1" vertex="1">
          <mxGeometry x="115.87" y="-434.25" width="30" height="120" as="geometry" />
        </mxCell>
        <mxCell id="7RV-Xho5Ibt-8_JDrtLR-1" value="País&lt;span style=&quot;color: rgba(0, 0, 0, 0); font-family: monospace; font-size: 0px; text-align: start; text-wrap: nowrap;&quot;&gt;%3CmxGraphModel%3E%3Croot%3E%3CmxCell%20id%3D%220%22%2F%3E%3CmxCell%20id%3D%221%22%20parent%3D%220%22%2F%3E%3CmxCell%20id%3D%222%22%20value%3D%22Selecciones%22%20style%3D%22rounded%3D0%3BwhiteSpace%3Dwrap%3Bhtml%3D1%3B%22%20vertex%3D%221%22%20parent%3D%221%22%3E%3CmxGeometry%20x%3D%223%22%20y%3D%22-205.5%22%20width%3D%22100%22%20height%3D%2220%22%20as%3D%22geometry%22%2F%3E%3C%2FmxCell%3E%3C%2Froot%3E%3C%2FmxGraphModel%3E&lt;/span&gt;" style="rounded=0;whiteSpace=wrap;html=1;" parent="1" vertex="1">
          <mxGeometry x="28.37" y="-216.75" width="50" height="20" as="geometry" />
        </mxCell>
        <mxCell id="7RV-Xho5Ibt-8_JDrtLR-2" value="Ciudad" style="rounded=0;whiteSpace=wrap;html=1;" parent="1" vertex="1">
          <mxGeometry x="208.87" y="-216.75" width="55.5" height="20" as="geometry" />
        </mxCell>
        <mxCell id="7RV-Xho5Ibt-8_JDrtLR-3" value="&lt;font style=&quot;font-size: 10px;&quot;&gt;nombre_pais&lt;/font&gt;" style="ellipse;whiteSpace=wrap;html=1;" parent="1" vertex="1">
          <mxGeometry y="-187.25" width="70" height="29" as="geometry" />
        </mxCell>
        <mxCell id="7RV-Xho5Ibt-8_JDrtLR-5" value="&lt;font style=&quot;font-size: 10px;&quot;&gt;nombre_corto&lt;/font&gt;" style="ellipse;whiteSpace=wrap;html=1;" parent="1" vertex="1">
          <mxGeometry x="74" y="-187.25" width="61" height="30" as="geometry" />
        </mxCell>
        <mxCell id="7RV-Xho5Ibt-8_JDrtLR-6" value="nombre_ciudad" style="ellipse;whiteSpace=wrap;html=1;" parent="1" vertex="1">
          <mxGeometry x="209.62" y="-182.25" width="90" height="40" as="geometry" />
        </mxCell>
        <mxCell id="7RV-Xho5Ibt-8_JDrtLR-7" value="pertenece" style="shape=rhombus;perimeter=rhombusPerimeter;whiteSpace=wrap;html=1;align=center;" parent="1" vertex="1">
          <mxGeometry x="114.37" y="-231.25" width="60" height="49" as="geometry" />
        </mxCell>
        <mxCell id="7RV-Xho5Ibt-8_JDrtLR-8" value="" style="endArrow=none;html=1;rounded=0;entryX=1;entryY=0.5;entryDx=0;entryDy=0;exitX=0;exitY=0.5;exitDx=0;exitDy=0;" parent="1" source="7RV-Xho5Ibt-8_JDrtLR-7" target="7RV-Xho5Ibt-8_JDrtLR-1" edge="1">
          <mxGeometry width="50" height="50" relative="1" as="geometry">
            <mxPoint x="88.37" y="-296.75" as="sourcePoint" />
            <mxPoint x="88.37" y="-311.25" as="targetPoint" />
          </mxGeometry>
        </mxCell>
        <mxCell id="7RV-Xho5Ibt-8_JDrtLR-10" value="(1,1)" style="edgeLabel;html=1;align=center;verticalAlign=middle;resizable=0;points=[];" parent="7RV-Xho5Ibt-8_JDrtLR-8" vertex="1" connectable="0">
          <mxGeometry x="-0.0003" relative="1" as="geometry">
            <mxPoint as="offset" />
          </mxGeometry>
        </mxCell>
        <mxCell id="7RV-Xho5Ibt-8_JDrtLR-9" value="" style="endArrow=none;html=1;rounded=0;entryX=1;entryY=0.5;entryDx=0;entryDy=0;exitX=0;exitY=0.5;exitDx=0;exitDy=0;" parent="1" source="7RV-Xho5Ibt-8_JDrtLR-2" target="7RV-Xho5Ibt-8_JDrtLR-7" edge="1">
          <mxGeometry width="50" height="50" relative="1" as="geometry">
            <mxPoint x="195.37" y="-246.25" as="sourcePoint" />
            <mxPoint x="98.37" y="-301.25" as="targetPoint" />
          </mxGeometry>
        </mxCell>
        <mxCell id="7RV-Xho5Ibt-8_JDrtLR-11" value="(1,n)" style="edgeLabel;html=1;align=center;verticalAlign=middle;resizable=0;points=[];" parent="7RV-Xho5Ibt-8_JDrtLR-9" vertex="1" connectable="0">
          <mxGeometry x="0.1741" y="1" relative="1" as="geometry">
            <mxPoint as="offset" />
          </mxGeometry>
        </mxCell>
        <mxCell id="7RV-Xho5Ibt-8_JDrtLR-12" value="ubicado" style="shape=rhombus;perimeter=rhombusPerimeter;whiteSpace=wrap;html=1;align=center;" parent="1" vertex="1">
          <mxGeometry x="178.37" y="-294.25" width="60" height="49" as="geometry" />
        </mxCell>
        <mxCell id="7RV-Xho5Ibt-8_JDrtLR-13" value="" style="endArrow=none;html=1;rounded=0;entryX=0.5;entryY=1;entryDx=0;entryDy=0;exitX=0;exitY=0;exitDx=0;exitDy=0;" parent="1" source="7RV-Xho5Ibt-8_JDrtLR-2" target="7RV-Xho5Ibt-8_JDrtLR-12" edge="1">
          <mxGeometry width="50" height="50" relative="1" as="geometry">
            <mxPoint x="198.37" y="-264.25" as="sourcePoint" />
            <mxPoint x="198.37" y="-311.25" as="targetPoint" />
          </mxGeometry>
        </mxCell>
        <mxCell id="7RV-Xho5Ibt-8_JDrtLR-14" value="(1,1)" style="edgeLabel;html=1;align=center;verticalAlign=middle;resizable=0;points=[];" parent="7RV-Xho5Ibt-8_JDrtLR-13" vertex="1" connectable="0">
          <mxGeometry x="0.1365" y="1" relative="1" as="geometry">
            <mxPoint as="offset" />
          </mxGeometry>
        </mxCell>
        <mxCell id="7RV-Xho5Ibt-8_JDrtLR-16" value="representa" style="shape=rhombus;perimeter=rhombusPerimeter;whiteSpace=wrap;html=1;align=center;" parent="1" vertex="1">
          <mxGeometry x="42.370000000000005" y="-295.75" width="70" height="52" as="geometry" />
        </mxCell>
        <mxCell id="7RV-Xho5Ibt-8_JDrtLR-17" value="" style="endArrow=none;html=1;rounded=0;exitX=0.652;exitY=0.128;exitDx=0;exitDy=0;entryX=0;entryY=1;entryDx=0;entryDy=0;exitPerimeter=0;" parent="1" source="7RV-Xho5Ibt-8_JDrtLR-1" target="7RV-Xho5Ibt-8_JDrtLR-16" edge="1">
          <mxGeometry width="50" height="50" relative="1" as="geometry">
            <mxPoint x="85.37" y="-283.25" as="sourcePoint" />
            <mxPoint x="85.37" y="-312.25" as="targetPoint" />
          </mxGeometry>
        </mxCell>
        <mxCell id="7RV-Xho5Ibt-8_JDrtLR-19" value="(1,1)" style="edgeLabel;html=1;align=center;verticalAlign=middle;resizable=0;points=[];" parent="7RV-Xho5Ibt-8_JDrtLR-17" vertex="1" connectable="0">
          <mxGeometry x="0.1424" relative="1" as="geometry">
            <mxPoint as="offset" />
          </mxGeometry>
        </mxCell>
        <mxCell id="7RV-Xho5Ibt-8_JDrtLR-20" value="" style="endArrow=none;html=1;rounded=0;exitX=0.283;exitY=0.038;exitDx=0;exitDy=0;exitPerimeter=0;" parent="1" edge="1">
          <mxGeometry width="50" height="50" relative="1" as="geometry">
            <mxPoint x="234.09000000000026" y="-180.73000000000002" as="sourcePoint" />
            <mxPoint x="234.37" y="-196.25" as="targetPoint" />
          </mxGeometry>
        </mxCell>
        <mxCell id="7RV-Xho5Ibt-8_JDrtLR-21" value="" style="endArrow=none;html=1;rounded=0;entryX=0.25;entryY=1;entryDx=0;entryDy=0;exitX=0.5;exitY=0;exitDx=0;exitDy=0;" parent="1" source="7RV-Xho5Ibt-8_JDrtLR-3" target="7RV-Xho5Ibt-8_JDrtLR-1" edge="1">
          <mxGeometry width="50" height="50" relative="1" as="geometry">
            <mxPoint x="34" y="-186.25" as="sourcePoint" />
            <mxPoint x="195.37" y="-326.25" as="targetPoint" />
          </mxGeometry>
        </mxCell>
        <mxCell id="7RV-Xho5Ibt-8_JDrtLR-22" value="" style="endArrow=none;html=1;rounded=0;exitX=0;exitY=0;exitDx=0;exitDy=0;entryX=0.75;entryY=1;entryDx=0;entryDy=0;" parent="1" source="7RV-Xho5Ibt-8_JDrtLR-5" target="7RV-Xho5Ibt-8_JDrtLR-1" edge="1">
          <mxGeometry width="50" height="50" relative="1" as="geometry">
            <mxPoint x="145.37" y="-276.25" as="sourcePoint" />
            <mxPoint x="195.37" y="-326.25" as="targetPoint" />
          </mxGeometry>
        </mxCell>
        <mxCell id="XiUle8GG6skzjTlj86Vm-4" value="" style="endArrow=none;html=1;rounded=0;entryX=0.5;entryY=0;entryDx=0;entryDy=0;exitX=0.5;exitY=1;exitDx=0;exitDy=0;" edge="1" parent="1" source="Gta5DQi-riPikVPDDbvj-22" target="cS88r38_KW8MVmtZ6D21-15">
          <mxGeometry width="50" height="50" relative="1" as="geometry">
            <mxPoint x="620" y="-440" as="sourcePoint" />
            <mxPoint x="670" y="-490" as="targetPoint" />
          </mxGeometry>
        </mxCell>
        <mxCell id="XiUle8GG6skzjTlj86Vm-8" value="&lt;font style=&quot;font-size: 14px;&quot;&gt;(1,1)&lt;/font&gt;" style="edgeLabel;html=1;align=center;verticalAlign=middle;resizable=0;points=[];" vertex="1" connectable="0" parent="XiUle8GG6skzjTlj86Vm-4">
          <mxGeometry x="-0.0571" y="-1" relative="1" as="geometry">
            <mxPoint as="offset" />
          </mxGeometry>
        </mxCell>
        <mxCell id="XiUle8GG6skzjTlj86Vm-5" value="Partido_competitivo" style="shape=ext;margin=3;double=1;whiteSpace=wrap;html=1;align=center;" vertex="1" parent="1">
          <mxGeometry x="478.75" y="-468" width="130" height="40" as="geometry" />
        </mxCell>
        <mxCell id="XiUle8GG6skzjTlj86Vm-15" value="" style="endArrow=none;html=1;rounded=0;entryX=0.5;entryY=1;entryDx=0;entryDy=0;exitX=0.5;exitY=0;exitDx=0;exitDy=0;" edge="1" parent="1" source="YFh-IGeQEtQM-p5CWIq_-20" target="04urakdWcX9fBKobl6bI-17">
          <mxGeometry width="50" height="50" relative="1" as="geometry">
            <mxPoint x="90" y="-626.25" as="sourcePoint" />
            <mxPoint x="140" y="-676.25" as="targetPoint" />
          </mxGeometry>
        </mxCell>
        <mxCell id="XiUle8GG6skzjTlj86Vm-16" value="&lt;font style=&quot;font-size: 14px;&quot;&gt;(0,n)&lt;/font&gt;" style="edgeLabel;html=1;align=center;verticalAlign=middle;resizable=0;points=[];" vertex="1" connectable="0" parent="XiUle8GG6skzjTlj86Vm-15">
          <mxGeometry x="0.0507" y="-1" relative="1" as="geometry">
            <mxPoint x="-1" y="7" as="offset" />
          </mxGeometry>
        </mxCell>
        <mxCell id="XiUle8GG6skzjTlj86Vm-17" value="" style="whiteSpace=wrap;html=1;aspect=fixed;fillColor=none;" vertex="1" parent="1">
          <mxGeometry x="67.87" y="-687.25" width="126" height="126" as="geometry" />
        </mxCell>
        <mxCell id="XiUle8GG6skzjTlj86Vm-19" value="" style="endArrow=none;html=1;rounded=0;entryX=1;entryY=1;entryDx=0;entryDy=0;exitX=0.25;exitY=0;exitDx=0;exitDy=0;" edge="1" parent="1" source="04urakdWcX9fBKobl6bI-17" target="SiwQUYb9ngDk87hLv0Yr-20">
          <mxGeometry width="50" height="50" relative="1" as="geometry">
            <mxPoint x="70" y="-746.25" as="sourcePoint" />
            <mxPoint x="120" y="-796.25" as="targetPoint" />
          </mxGeometry>
        </mxCell>
      </root>
    </mxGraphModel>
  </diagram>
  <diagram id="UOu0zwOPBb_SiSx9JhJ9" name="Página-2">
    <mxGraphModel grid="1" page="1" gridSize="10" guides="1" tooltips="1" connect="1" arrows="1" fold="1" pageScale="1" pageWidth="827" pageHeight="1169" math="0" shadow="0">
      <root>
        <mxCell id="0" />
        <mxCell id="1" parent="0" />
      </root>
    </mxGraphModel>
  </diagram>
</mxfile>
